<svg xmlns="http://www.w3.org/2000/svg" width="32.625" height="31.825" viewBox="0 0 32.625 31.825">
  <g id="Group_31" data-name="Group 31" transform="translate(-133.559 -49.97)">
    <path id="Path_270" data-name="Path 270" d="M146.863,73.412s-6.616.274-7.282-6.577a6.812,6.812,0,0,1,1.566-5.794s-.825-1.418.17-4.347c0,0,1.257-.428,4.476,1.7a15.59,15.59,0,0,1,8.167,0,8.2,8.2,0,0,1,4.461-1.735,5.648,5.648,0,0,1,.2,4.376,6.588,6.588,0,0,1,1.542,5.78s.357,6.029-7.288,6.6a3.949,3.949,0,0,1,1.089,2.564v5.094a.75.75,0,0,0,.985.68A16.137,16.137,0,0,0,166.184,65.9c0-9.274-8.132-15.925-16.3-15.925,0,0-14.636-.52-16.3,15.905,0,0-1.124,11.033,11.024,15.905,0,0,1.171.162,1.218-.69V77.91s-3.955,1.219-5.523-1.819a4.857,4.857,0,0,0-1.567-2.322,2.813,2.813,0,0,1-.813-.716c-.275-.409.692-.409.692-.409a2.824,2.824,0,0,1,1.33.373,3.235,3.235,0,0,1,.974.927c.213.283.23.38.386.617a3.48,3.48,0,0,0,1.549,1.281,3.263,3.263,0,0,0,1.933.133c.128-.047.264-.091.406-.136a4.429,4.429,0,0,1,.641-.165A3.548,3.548,0,0,1,146.863,73.412Z" fill="#0e110f"/>
    <ellipse id="Ellipse_8" data-name="Ellipse 8" cx="0.154" cy="0.216" rx="0.154" ry="0.216" transform="translate(139.203 73.123) rotate(-60)" fill="#0e110f"/>
    <ellipse id="Ellipse_9" data-name="Ellipse 9" cx="0.189" cy="0.266" rx="0.189" ry="0.266" transform="matrix(0.623, -0.782, 0.782, 0.623, 139.985, 73.696)" fill="#0e110f"/>
    <ellipse id="Ellipse_10" data-name="Ellipse 10" cx="0.189" cy="0.302" rx="0.189" ry="0.302" transform="matrix(0.798, -0.602, 0.602, 0.798, 140.537, 74.444)" fill="#0e110f"/>
    <ellipse id="Ellipse_11" data-name="Ellipse 11" cx="0.217" cy="0.332" rx="0.217" ry="0.332" transform="translate(141.326 75.562) rotate(-45)" fill="#0e110f"/>
    <ellipse id="Ellipse_12" data-name="Ellipse 12" cx="0.217" cy="0.332" rx="0.217" ry="0.332" transform="translate(142.439 76.259) rotate(-71.235)" fill="#0e110f"/>
    <ellipse id="Ellipse_13" data-name="Ellipse 13" cx="0.332" cy="0.217" rx="0.332" ry="0.217" transform="translate(143.88 76.175)" fill="#0e110f"/>
    <ellipse id="Ellipse_14" data-name="Ellipse 14" cx="0.332" cy="0.217" rx="0.332" ry="0.217" transform="translate(145.196 76.175)" fill="#0e110f"/>
  </g>
</svg>
