<svg xmlns="http://www.w3.org/2000/svg" width="512.433" height="104.944" viewBox="0 0 512.433 104.944">
  <g id="Group_30" data-name="Group 30" transform="translate(-63.521 -16.995)">
    <g id="Group_27" data-name="Group 27">
      <g id="Group_13" data-name="Group 13" transform="translate(63.521 62.062)">
        <path id="Path_198" data-name="Path 198" d="M430.944,557.406l36.771-21.5a3.532,3.532,0,0,1,2.053-.049l61.11,35.513c.09.2.767,1.806-.406,2.608l-36.269,21a3.9,3.9,0,0,1-3.561.3l-59.566-34.441S429.247,559.036,430.944,557.406Z" transform="translate(-430.223 -535.717)" fill="#648290"/>
      </g>
      <path id="Path_199" data-name="Path 199" d="M514.507,607.124l-22.424-13.029a1,1,0,0,0-1.062,0l-11.682,6.433a1.023,1.023,0,0,0,0,1.613l22.3,13.029a1.4,1.4,0,0,0,1.185,0l11.681-6.658A.853.853,0,0,0,514.507,607.124Z" transform="translate(-394.614 -507.008)" fill="#c3d2da"/>
      <g id="Group_14" data-name="Group 14" transform="translate(102.361 16.995)">
        <path id="Path_200" data-name="Path 200" d="M521.168,473.671l.1-42.162s0-1.631,1.4-1.265L583.8,460.36s1.963,1.065,1.963,2.629l-1.7,46.787a1.011,1.011,0,0,1-1.07,1.135L522,475.467A2.21,2.21,0,0,1,521.168,473.671Z" transform="translate(-521.168 -430.191)" fill="#859875"/>
      </g>
      <path id="Path_201" data-name="Path 201" d="M569.365,511.377c-16.7,6.251-27.357-4.87-27.357-4.87l.489-18.077c1.285,6.036,17.235,10.018,29.565,7.321s22.369,4.6,22.369,4.6a12.754,12.754,0,0,0,1.465.606l2.546.968s4.26.5,5.9-.638l-4.167,14.231,2.191,3.1s-9.133,2.508-15.285-1.6a16.086,16.086,0,0,0-17.716-5.629Z" transform="translate(-430.747 -446.563)" fill="#c3d2da"/>
      <g id="Group_16" data-name="Group 16" transform="translate(156.066 46.914)">
        <path id="Path_202" data-name="Path 202" d="M742.553,503.044a3.862,3.862,0,0,1-1.065,1.6,54.424,54.424,0,0,1-9.183,4.825,74.652,74.652,0,0,1-12.877,4.425c-.829.2-1.734.35-2.7.516a12.654,12.654,0,0,1-3.323.316,4.144,4.144,0,0,0-2.3.965,16.22,16.22,0,0,0-3.161,3.693c-1.331,2.1-1.5,2.462-1.5,2.462a4.694,4.694,0,0,1-2.761,2l-1.564.565-1.93-2.629,2.4-.765a4.392,4.392,0,0,0,2.5-1.963,15.653,15.653,0,0,1,2.828-3.361,6.814,6.814,0,0,1,4.126-1.431,8.162,8.162,0,0,0,3.294-.233,24.33,24.33,0,0,0,3.66-.9C720.727,512.527,738.294,506.205,742.553,503.044Z" transform="translate(-677.446 -501.85)" fill="#648290"/>
        <g id="Group_15" data-name="Group 15" transform="translate(22.752)">
          <path id="Path_203" data-name="Path 203" d="M700.2,519.808l2.452-.919a6.951,6.951,0,0,0,2.817-2.68,8.755,8.755,0,0,1,3.013-2.954,6.4,6.4,0,0,1,4.108-.959c2.749.126,3.365-.293,3.365-.293a187.23,187.23,0,0,0,26.26-10.707s1.058-.635-.932-1-13.279,1.584-16.167,2.383-10.937,4.055-11.736,4.854a3.956,3.956,0,0,1-2.15.922s-1.782-.307-2.212-.983-1.782-2.87-3.563-2.818a4.584,4.584,0,0,0-1.786.446Zm38.275-18.542c.615-.165,1.181-.046,1.265.266s-.347.7-.961.864-1.181.046-1.265-.266S737.859,501.432,738.473,501.267Z" transform="translate(-700.198 -500.247)" fill="#648290"/>
        </g>
        <path id="Path_204" data-name="Path 204" d="M698,512.541l-3.89,14.5,2.167-.64,3.5-14.643Z" transform="translate(-673.957 -506.845)" fill="#648290"/>
        <path id="Path_205" data-name="Path 205" d="M691.477,513.9l-3.808,14.372-4.049,1.293,3.928-14.435Z" transform="translate(-667.948 -508.067)" fill="#648290"/>
        <path id="Path_206" data-name="Path 206" d="M696.769,546.906l-1.976.53,1.976,2.675,1.952-.576Z" transform="translate(-674.349 -526.98)" fill="#648290"/>
        <path id="Path_207" data-name="Path 207" d="M690,550.984l-1.807-2.554-4.121,1.157,1.856,2.8Z" transform="translate(-668.206 -527.852)" fill="#648290"/>
        <path id="Path_208" data-name="Path 208" d="M682.412,554.337l-1.928-2.747s-1.735.482-1.663.506,1.928,2.7,1.928,2.7Z" transform="translate(-665.197 -529.663)" fill="#648290"/>
        <path id="Path_209" data-name="Path 209" d="M683.8,517.281,679.946,531.5l-2.024.578,4.29-14.266Z" transform="translate(-664.683 -510.007)" fill="#648290"/>
        <path id="Path_210" data-name="Path 210" d="M661.7,554.39l-1.385-1.8s-.146-.219-.565,0-6.178,1.446-9.476-.1-3.353-.413-3.353-.413,4.1,1.895,4.574,1.6c0,0-.856.456-3.881-.437a8.212,8.212,0,0,0,3.681,1.512S657.983,555.647,661.7,554.39Z" transform="translate(-646.922 -529.713)" fill="#648290" stroke="#648290" stroke-miterlimit="10" stroke-width="1"/>
        <path id="Path_211" data-name="Path 211" d="M661.447,547.559s.217-.8,0-.78-5.115,1.378-11.64-1.943c0,0-.3.349,0,.515,0,0,4.6,2.408,5.791,2.109,0,0,.511.3,0,.3s-.611.416-5.077-1.327c0,0-.2.2.2.382a17.789,17.789,0,0,0,2.972,1.262S659.888,548.655,661.447,547.559Z" transform="translate(-648.499 -525.794)" fill="#648290" stroke="#648290" stroke-miterlimit="10" stroke-width="1"/>
        <path id="Path_212" data-name="Path 212" d="M657.213,542.453c.048-.014-4.184-1.048-5.153-2.607,0,0-.157-.045.041.3s.92,1.566,1.729,1.722C653.83,541.864,656.007,542.82,657.213,542.453Z" transform="translate(-649.832 -522.933)" fill="#648290" stroke="#648290" stroke-miterlimit="10" stroke-width="1"/>
        <path id="Path_213" data-name="Path 213" d="M655,537.366s-.764-.15-.3.415c0,0,3.271,1.826,5.329,1.528a17.315,17.315,0,0,0,5.463-.183l.282-.6S658.615,539.408,655,537.366Z" transform="translate(-651.29 -521.503)" fill="#648290" stroke="#648290" stroke-miterlimit="10" stroke-width="1"/>
        <path id="Path_214" data-name="Path 214" d="M660.505,533.414s-1.012-.079-.095.411a16.822,16.822,0,0,0,6.507,0l.767-1.945a2.423,2.423,0,0,1-.538,0,17.735,17.735,0,0,1-5.739.521,20.967,20.967,0,0,1-4.933-1.643s-.474.237-.111.427,2.989,2.514,9.788,1.486c0,0,.363-.095.174.269S663.842,534.236,660.505,533.414Z" transform="translate(-652.252 -517.728)" fill="#648290" stroke="#648290" stroke-miterlimit="10" stroke-width="1"/>
        <path id="Path_215" data-name="Path 215" d="M664.491,526.87c.185-.129-4.206-.465-5.932-3.276,0,0-.332-.155-.31.4s1.978,2.214,2.726,2.324c0,0,.247.177,0,.2a25.177,25.177,0,0,1-2.727-1.129s-.333-.088,0,.31a4.8,4.8,0,0,0,4.614,1.372A5.444,5.444,0,0,0,664.491,526.87Z" transform="translate(-653.326 -513.612)" fill="#648290" stroke="#648290" stroke-miterlimit="10" stroke-width="1"/>
        <path id="Path_216" data-name="Path 216" d="M671.522,524.721l.244-1.108a18.849,18.849,0,0,1-5.268.111c-.244-.044-3.78-1-4.225-1.926,0,0-.623.089.2.775s4.25,2.3,6.309,1.9c0,0,1.9-.152.2.245a6.8,6.8,0,0,1-2.071,0s-.677-.024,0,.331S671.522,524.721,671.522,524.721Z" transform="translate(-655.587 -512.594)" fill="#648290" stroke="#648290" stroke-miterlimit="10" stroke-width="1"/>
        <path id="Path_217" data-name="Path 217" d="M672.916,520.365s1-2.014.731-1.97-5.29,1.447-9.784-1.114c0,0-.28.162.38.671s5.376,2.479,7.39,1.461c0,0,1.528.288.266.421a9.945,9.945,0,0,1-5.1-.421s-.386.022,0,.443S669.862,521.1,672.916,520.365Z" transform="translate(-656.594 -510.006)" fill="#648290" stroke="#648290" stroke-miterlimit="10" stroke-width="1"/>
      </g>
    </g>
    <g id="Group_22" data-name="Group 22" transform="translate(65.004 -983.916)">
      <path id="Path_245" data-name="Path 245" d="M178.347,1056.074c1.889-1.442,2.844-4.089,2.844-7.906,0-3.688-.679-5.995-2.137-7.261-1.341-1.165-3.006-1.167-4.468-1.164h-5.357v33.56H174.4c2.145,0,7.168,0,7.168-8.984C181.564,1059.5,179.964,1057.181,178.347,1056.074Zm-1.1-12.9c.761.758,1.146,2.422,1.146,4.946,0,6.563-3.059,6.563-4.888,6.563h-1.489v-12.149h2.513C175.648,1042.53,176.6,1042.529,177.252,1043.175Zm-5.231,14.255h1.489c2.427,0,5.213.778,5.213,6.843,0,6.284-2.5,6.284-4.515,6.284h-2.188Z" transform="translate(0 -0.908)" fill="#648290"/>
      <path id="Path_246" data-name="Path 246" d="M227.691,1048.587c0-8.161-3.173-8.844-6.424-8.844h-5.539v33.56h2.793v-14.522h2.188c1.488,0,3.319.644,3.588,3.715.068.75.182,2.237.182,3.779,0,2.068.025,4.82.143,6.178l.074.85h2.937l-.137-1.051a51.185,51.185,0,0,1-.179-5.931c0-4.833-.432-7.664-2.613-9.051C226.689,1055.811,227.691,1052.9,227.691,1048.587Zm-9.17-6.1h2.56c2.215,0,3.817,0,3.817,6.051,0,6.586-2.506,7.494-5.213,7.494h-1.164Z" transform="translate(-24.857 -0.909)" fill="#648290"/>
      <path id="Path_247" data-name="Path 247" d="M270.236,1067.671a3.12,3.12,0,0,1-3.258,3.4c-2.941,0-3.259-2.474-3.259-3.537v-27.789h-2.793v27.6c0,4.022,2.262,6.423,6.051,6.423,3.7,0,6-2.461,6-6.423v-27.6h-2.746Z" transform="translate(-49.018 -0.909)" fill="#648290"/>
      <path id="Path_248" data-name="Path 248" d="M311.355,1038.043c-4.694,0-5.678,3.67-5.678,6.749v1.536c0,3.464,1.78,5.956,3.665,8.595,2.512,3.507,4.434,6.441,4.434,9.6v1.816c0,1.478-.435,3.956-3.351,3.956-.808,0-2.7,0-2.7-4.515a16.179,16.179,0,0,1,.215-2.75l.2-1-2.771-.292-.144.865a21.114,21.114,0,0,0-.2,3.319c0,1.649.393,7.028,5.446,7.028,3.845,0,6.051-2.443,6.051-6.7V1064.3c0-4.006-2.816-7.974-4.869-10.867-2.016-2.88-3.183-4.98-3.183-7.193v-1.676c0-2.568.929-3.817,2.839-3.817,1.782,0,2.747.675,2.747,4.236a14.972,14.972,0,0,1-.177,2.521l-.137.961,2.8.28.117-.9a20.051,20.051,0,0,0,.194-2.867C316.848,1040.376,315,1038.043,311.355,1038.043Z" transform="translate(-72.591)" fill="#648290"/>
      <path id="Path_249" data-name="Path 249" d="M359.259,1054.592h-6.843v-14.849h-2.793v33.607h2.793v-16.012h6.843v16.012h2.793v-33.607h-2.793Z" transform="translate(-96.432 -0.909)" fill="#648290"/>
      <path id="Path_250" data-name="Path 250" d="M401.554,1038.043c-4.694,0-5.678,3.67-5.678,6.749v1.536c0,3.464,1.78,5.956,3.665,8.595,2.512,3.507,4.434,6.441,4.434,9.6v1.816c0,1.478-.436,3.956-3.352,3.956-.808,0-2.7,0-2.7-4.515a16.188,16.188,0,0,1,.214-2.75l.2-1-2.771-.292-.144.865a21.207,21.207,0,0,0-.2,3.319c0,1.649.392,7.028,5.446,7.028,3.846,0,6.051-2.443,6.051-6.7V1064.3c0-4.006-2.816-7.974-4.869-10.867-2.016-2.88-3.183-4.98-3.183-7.193v-1.676c0-2.568.929-3.817,2.84-3.817,1.781,0,2.746.675,2.746,4.236a14.975,14.975,0,0,1-.177,2.521l-.137.961,2.8.28.117-.9a19.981,19.981,0,0,0,.194-2.867C407.047,1040.376,405.2,1038.043,401.554,1038.043Z" transform="translate(-120.807)" fill="#648290"/>
      <path id="Path_251" data-name="Path 251" d="M434.323,1042.489h5.446v30.861h2.793v-30.861H448.1v-2.746H434.323Z" transform="translate(-141.708 -0.909)" fill="#648290"/>
      <path id="Path_252" data-name="Path 252" d="M494.286,1048.587c0-8.161-3.173-8.844-6.424-8.844h-5.539v33.56h2.793v-14.522H487.3c1.488,0,3.319.644,3.588,3.715.068.75.182,2.237.182,3.779,0,2.068.025,4.82.143,6.178l.074.85h2.937l-.136-1.051a51.179,51.179,0,0,1-.179-5.931c0-4.833-.432-7.664-2.613-9.051C493.284,1055.811,494.286,1052.9,494.286,1048.587Zm-9.17-6.1h2.56c2.216,0,3.818,0,3.818,6.051,0,6.586-2.506,7.494-5.214,7.494h-1.164Z" transform="translate(-167.367 -0.909)" fill="#648290"/>
      <path id="Path_253" data-name="Path 253" d="M533.414,1038.043c-3.877,0-6.191,2.436-6.191,6.517v21.877c0,3.962,2.372,6.423,6.191,6.423,3.7,0,6-2.461,6-6.423V1044.42C539.418,1040.546,537.061,1038.043,533.414,1038.043Zm0,32.117a3.239,3.239,0,0,1-3.4-3.537v-22.3a3.334,3.334,0,1,1,6.656-.14v22.575A3.121,3.121,0,0,1,533.414,1070.16Z" transform="translate(-191.369)" fill="#648290"/>
      <path id="Path_254" data-name="Path 254" d="M586.394,1039.743h-2.945l-6.634,16.36v-16.36h-2.793v33.56h2.793v-10.058l3.06-7.533,4.065,17.591h2.845l-5.133-21.986Z" transform="translate(-216.385 -0.909)" fill="#648290"/>
      <path id="Path_255" data-name="Path 255" d="M619.422,1073.35H629.2V1070.6h-6.982v-13.266h5.911v-2.746h-5.911v-12.1H629.2v-2.746h-9.775Z" transform="translate(-240.654 -0.909)" fill="#648290"/>
      <path id="Path_256" data-name="Path 256" d="M683.431,1039.743H677.52v33.56h5.724c4.411,0,6.377-1.895,6.377-6.144V1046.12C689.622,1041.531,687.886,1039.743,683.431,1039.743Zm-.187,30.814h-2.932v-28.068h3.118c2.768,0,3.444.667,3.444,3.4v21.319C686.875,1069.743,685.993,1070.557,683.245,1070.557Z" transform="translate(-271.711 -0.909)" fill="#859875"/>
      <path id="Path_257" data-name="Path 257" d="M724.22,1073.35h9.775V1070.6h-6.982v-13.266h5.911v-2.746h-5.911v-12.1h6.982v-2.746H724.22Z" transform="translate(-296.675 -0.909)" fill="#859875"/>
      <path id="Path_258" data-name="Path 258" d="M767.648,1038.043c-4.694,0-5.678,3.67-5.678,6.749v1.536c0,3.464,1.78,5.956,3.665,8.595,2.512,3.507,4.434,6.441,4.434,9.6v1.816c0,1.478-.435,3.956-3.351,3.956-.808,0-2.7,0-2.7-4.515a16.183,16.183,0,0,1,.215-2.75l.2-1-2.771-.292-.144.865a21.109,21.109,0,0,0-.2,3.319c0,1.649.393,7.028,5.446,7.028,3.845,0,6.051-2.443,6.051-6.7V1064.3c0-4.006-2.816-7.974-4.869-10.867-2.016-2.88-3.183-4.98-3.183-7.193v-1.676c0-2.568.929-3.817,2.839-3.817,1.782,0,2.747.675,2.747,4.236a14.968,14.968,0,0,1-.177,2.521l-.137.961,2.8.28.117-.9a20.042,20.042,0,0,0,.194-2.867C773.14,1040.376,771.292,1038.043,767.648,1038.043Z" transform="translate(-316.505)" fill="#859875"/>
      <rect id="Rectangle_457" data-name="Rectangle 457" width="2.793" height="33.607" transform="translate(465.57 1038.834)" fill="#859875"/>
      <path id="Path_259" data-name="Path 259" d="M841.833,1066.544c0,1.912-.856,3.956-3.259,3.956-2.248,0-3.165-1.038-3.165-3.584v-22.25c0-2.332,1.114-3.724,2.98-3.724,2.56,0,3.3.611,3.3,4.655a19.162,19.162,0,0,1-.223,2.522l-.137.965,2.8.267.153-.842a24.125,24.125,0,0,0,.248-2.959c0-4.386-1.037-7.308-6.1-7.308-3.7,0-5.818,2.426-5.818,6.656v21.784c0,4.141,2.121,6.517,5.818,6.517,2.993,0,6.191-1.773,6.191-6.749v-8.984h-2.793Z" transform="translate(-354.619 -0.107)" fill="#859875"/>
      <path id="Path_260" data-name="Path 260" d="M889.731,1039.743h-2.747l.036,21.845-5.981-21.845h-3.224v33.56h2.793v-24.591l6.738,24.591h2.385Z" transform="translate(-378.781 -0.909)" fill="#859875"/>
    </g>
  </g>
</svg>
