<svg xmlns="http://www.w3.org/2000/svg" width="234.545" height="233.052" viewBox="0 0 234.545 233.052">
  <g id="Group_21" data-name="Group 21" transform="translate(117.273 625.187)">
    <g id="Group_20" data-name="Group 20">
      <path id="Path_234" data-name="Path 234" d="M94.048-555.78c-67.23-88.028-148.97-38.21-148.97-38.21S-75.236-579.48-65.563-558.2s9.19,44.981-22.732,48.366c0,0-37.727,1.935-27.086,48.851,0,0,40.145,108.342,176.54,53.2C61.159-407.777,161.278-467.752,94.048-555.78Zm-104.543,4.359s-41.671,5.6-25.884-24.556c0,0,20.906-9.955,30.529,1.659S-4.19-555.4-10.495-551.421Z" fill="#c3d2da"/>
    </g>
    <path id="Path_235" data-name="Path 235" d="M-90.369-463.106s-3.206,7.837,4.275,4.987L5.627-530.432s64.661-50.583,80.335-69.82c0,0,18.523-.712,16.03-24.935,0,0-4.275,7.481-12.112,7.837,0,0-9.723,1.668-9.974,12.824,0,0-60.2,41.322-83.712,65.9Z" fill="#648290"/>
    <path id="Path_236" data-name="Path 236" d="M83.594-605.147s-1.38-9.234,9.34-10.4c0,0,5.838-.7,7.537-4.033C100.471-619.582,98.56-605.04,83.594-605.147Z" fill="#fff"/>
    <path id="Path_237" data-name="Path 237" d="M-74.155-473.519s-2.081,3.468,1.127,1.648l32.781-27.5s79.3-63.334,81.5-67.881c0,0-2.748-4.546-4.535-3.859C36.715-571.112-72.467-475.564-74.155-473.519Z" fill="#fff"/>
    <path id="Path_238" data-name="Path 238" d="M39.628-572.423l3.321,3.346a1.408,1.408,0,0,0,1.264-1.041l-3.445-3.4S39.306-573.315,39.628-572.423Z" fill="#fff"/>
    <path id="Path_239" data-name="Path 239" d="M43.762-574.849l2.357,2.424s.539.808,1.549,0S74.2-594.784,74.2-594.784s1.414-2.29-1.482-1.482c0,0-27.576,19.225-28.151,19.8C43.854-575.749,43.762-575.934,43.762-574.849Z" fill="#fff"/>
    <path id="Path_240" data-name="Path 240" d="M-62.493-433.811s10.458,15.759,15.9,15.9c0,0,3.868,2.722,11.031,0s16.046-16.906,16.046-16.906,1.862-9.168-1.862-13.466-7.88-8.167-7.88-8.167-7.163-3.581-10.315,6.447c0,0-1.289,2.006-2.865,1.576,0,0-6.877-7.449-15.043,7.45C-57.479-440.974-64.5-442.407-62.493-433.811Z" fill="#648290"/>
    <path id="Path_241" data-name="Path 241" d="M12.262-454.5s15.258-19.01,27.014-4.252c0,0,19.01-.278,7.755,21.873,0,0,0,12.145-9.255,11.395,0,0-21.011,14.508-28.766-9.005C9.01-434.493-6.2-444.769,12.262-454.5Z" fill="#648290"/>
    <path id="Path_242" data-name="Path 242" d="M76.546-490.022s9.005-9.005,14.258,10.255S83.675-454,83.675-454s-19.635,5.753-21.887-8c0,0-15.008-4-5.252-15.509C56.536-477.516,52.533-495.275,76.546-490.022Z" fill="#648290"/>
    <path id="Path_243" data-name="Path 243" d="M77.56-544.322s6.761,5.86,13.07,6.536,4.282,16.225,4.282,16.225-2.253,17.351-15.774,16.45c0,0-20.281,5.408-22.31-14.648S62.011-555.364,77.56-544.322Z" fill="#648290"/>
  </g>
</svg>
