<svg xmlns="http://www.w3.org/2000/svg" width="211.886" height="160.371" viewBox="0 0 211.886 160.371">
  <g id="Group_26" data-name="Group 26" transform="translate(358.729 651.447)">
    <g id="Group_24" data-name="Group 24" transform="translate(-303.79 -610.433)">
      <path id="Path_266" data-name="Path 266" d="M-290.143-537.3a50.27,50.27,0,0,1-50.212-50.215,50.269,50.269,0,0,1,50.212-50.212,50.271,50.271,0,0,1,50.212,50.212A50.272,50.272,0,0,1-290.143-537.3Zm0-94.446a44.279,44.279,0,0,0-44.232,44.232,44.28,44.28,0,0,0,44.232,44.235,44.282,44.282,0,0,0,44.232-44.235A44.281,44.281,0,0,0-290.143-631.75Z" transform="translate(340.355 637.73)" fill="#648290"/>
    </g>
    <ellipse id="Ellipse_6" data-name="Ellipse 6" cx="5.875" cy="3.778" rx="5.875" ry="3.778" transform="translate(-170.56 -619.075)" fill="#c3d2da"/>
    <g id="Group_25" data-name="Group 25" transform="translate(-358.729 -651.447)">
      <path id="Path_267" data-name="Path 267" d="M-197-603.782a56.473,56.473,0,0,1-56.473,56.473,56.473,56.473,0,0,1-56.473-56.473,56.181,56.181,0,0,1,6.291-25.828h-55.073v77.424a17.654,17.654,0,0,0,17.653,17.653H-164.5a17.654,17.654,0,0,0,17.653-17.653V-629.61h-56.449A56.181,56.181,0,0,1-197-603.782Z" transform="translate(358.729 694.904)" fill="#c3d2da"/>
      <path id="Path_268" data-name="Path 268" d="M-262.388-641.987a11.987,11.987,0,0,0-7.714-9.46h-54.867a9.194,9.194,0,0,0-7.714,7.421l-3.782,16.448h77.57Z" transform="translate(403.033 651.447)" fill="#c3d2da"/>
      <path id="Path_269" data-name="Path 269" d="M-164.5-643.464h-176.58a17.653,17.653,0,0,0-17.653,17.65v19.02H-300.9a56.389,56.389,0,0,1,47.431-25.888,56.389,56.389,0,0,1,47.431,25.888h59.2v-19.02A17.653,17.653,0,0,0-164.5-643.464Z" transform="translate(358.729 667.334)" fill="#648290"/>
    </g>
    <ellipse id="Ellipse_7" data-name="Ellipse 7" cx="8.868" cy="4.523" rx="8.868" ry="4.523" transform="translate(-174.46 -616.822)" fill="#c3d2da"/>
  </g>
</svg>
