<svg xmlns="http://www.w3.org/2000/svg" width="212.749" height="202.41" viewBox="0 0 212.749 202.41">
  <g id="Group_23" data-name="Group 23" transform="translate(391.726 587.33)">
    <path id="Path_261" data-name="Path 261" d="M-187-587.33H-383.7a8.022,8.022,0,0,0-8.022,8.022v152.429a8.022,8.022,0,0,0,8.022,8.022h68.662v26.581h-19.109a7.412,7.412,0,0,0-5.117,3.5,6.881,6.881,0,0,0-.8,3.855H-228.82a8.548,8.548,0,0,0-2-4.667,8.539,8.539,0,0,0-4.305-2.69h-20.433v-26.581H-187a8.022,8.022,0,0,0,8.022-8.022V-579.308A8.022,8.022,0,0,0-187-587.33Z" fill="#648290"/>
    <rect id="Rectangle_458" data-name="Rectangle 458" width="196.661" height="141.449" transform="translate(-384.401 -575.543)" fill="#c3d2da"/>
    <rect id="Rectangle_459" data-name="Rectangle 459" width="23.409" height="7.732" transform="translate(-337.022 -553.069)" fill="#648290"/>
    <path id="Path_262" data-name="Path 262" d="M-335.725-549.489l3.76,3.76,11.757-11.757-11.969-11.969-3.6,3.6,8.288,8.288Z" transform="translate(25.925 8.283)" fill="#648290"/>
    <path id="Path_263" data-name="Path 263" d="M-352.036-565.695l-3.76-3.76L-367.553-557.7l11.969,11.969,3.6-3.6-8.288-8.288Z" transform="translate(11.201 8.283)" fill="#648290"/>
    <rect id="Rectangle_460" data-name="Rectangle 460" width="23.409" height="5.6" transform="translate(-336.565 -450.255) rotate(-57.636)" fill="#fff"/>
    <path id="Path_264" data-name="Path 264" d="M-338.738-487.831l3.76,3.76,11.757-11.757L-335.19-507.8l-3.6,3.6,8.288,8.288Z" transform="translate(24.529 36.854)" fill="#648290"/>
    <path id="Path_265" data-name="Path 265" d="M-352.036-504.037l-3.76-3.76-11.757,11.757,11.969,11.969,3.6-3.6-8.288-8.288Z" transform="translate(11.201 36.854)" fill="#648290"/>
    <rect id="Rectangle_461" data-name="Rectangle 461" width="46.293" height="7.936" transform="translate(-357.713 -491.099)" fill="#648290"/>
    <rect id="Rectangle_462" data-name="Rectangle 462" width="46.884" height="7.936" transform="translate(-305.28 -491.099)" fill="#fff"/>
    <rect id="Rectangle_463" data-name="Rectangle 463" width="24.139" height="7.936" transform="translate(-253.425 -491.099)" fill="#648290"/>
    <rect id="Rectangle_464" data-name="Rectangle 464" width="23.146" height="7.936" transform="translate(-357.713 -510.277)" fill="#fff"/>
    <rect id="Rectangle_465" data-name="Rectangle 465" width="47.105" height="7.936" transform="translate(-329.623 -510.277)" fill="#648290"/>
    <rect id="Rectangle_466" data-name="Rectangle 466" width="36.275" height="7.936" transform="translate(-276.056 -510.277)" fill="#648290"/>
    <rect id="Rectangle_467" data-name="Rectangle 467" width="29.779" height="7.936" transform="translate(-357.713 -529.293)" fill="#648290"/>
    <rect id="Rectangle_468" data-name="Rectangle 468" width="80.193" height="7.936" transform="translate(-322.615 -529.293)" fill="#648290"/>
    <rect id="Rectangle_469" data-name="Rectangle 469" width="22.829" height="7.936" transform="translate(-237.813 -529.293)" fill="#fff"/>
  </g>
</svg>
