<?xml version="1.0" encoding="utf-8"?>
<!-- Generator: Adobe Illustrator 23.1.1, SVG Export Plug-In . SVG Version: 6.00 Build 0)  -->
<svg version="1.1" id="Layer_1" xmlns="http://www.w3.org/2000/svg" xmlns:xlink="http://www.w3.org/1999/xlink" x="0px" y="0px"
	 viewBox="0 0 2500 2500" style="enable-background:new 0 0 2500 2500;" xml:space="preserve">
<style type="text/css">
	.st0{fill:#FFFFFF;}
</style>
<g xmlns:cc="http://creativecommons.org/ns#" xmlns:dc="http://purl.org/dc/elements/1.1/" xmlns:inkscape="http://www.inkscape.org/namespaces/inkscape" xmlns:rdf="http://www.w3.org/1999/02/22-rdf-syntax-ns#" xmlns:sodipodi="http://sodipodi.sourceforge.net/DTD/sodipodi-0.dtd" xmlns:svg="http://www.w3.org/2000/svg">
	<path class="st0" d="M2083.3,24.5c104.2,0,202.6,40.9,277,115.2c74.3,74.4,115.2,172.8,115.2,277v1666.7
		c0,104.2-40.8,202.6-115.2,277c-74.4,74.4-172.8,115.2-277,115.2H416.7c-104.2,0-202.6-40.8-277-115.2
		c-74.4-74.3-115.2-172.8-115.2-277V416.7c0-104.2,40.8-202.6,115.2-277c74.4-74.3,172.8-115.2,277-115.2H2083.3 M2083.3,0H416.7
		C187.5,0,0,187.5,0,416.7v1666.7C0,2312.5,187.5,2500,416.7,2500h1666.7c229.2,0,416.7-187.5,416.7-416.7V416.7
		C2500,187.5,2312.5,0,2083.3,0z"/>
	<g>
		<path class="st0" d="M679.3,543.3h708.7c130.7,0,235.7,29.8,314.6,89.8c78.9,60,118.5,150.3,118.5,271.6
			c0,73.5-18,136.5-53.9,188.7c-36,52.3-87.4,93.2-154.4,121.7v4c89.9,19.2,158.1,61.7,204.2,127.5c46.2,66.2,69.4,148.7,69.4,248.4
			c0,57.2-10.2,110.7-30.6,160.1c-20.4,49.8-52.3,92.8-96,128.7c-43.7,36-99.2,64.6-167.5,85.8c-68.2,21.3-149.1,31.9-243,31.9
			H679.3V543.3z M934.6,1154h416.7c61.3,0,112.3-17.2,153.2-52.3s61.3-85,61.3-150.4c0-73.5-18.4-125.4-55.1-155.2
			c-36.8-29.8-89.9-44.9-159.3-44.9H934.6V1154z M934.6,1793.3H1386c77.6,0,138.1-20.1,180.6-60.5c42.9-40,64.6-97.2,64.6-170.8
			c0-72.3-21.3-127.4-64.6-166.7c-43.3-39.2-103-58-180.6-58H934.6V1793.3z"/>
	</g>
</g>
</svg>
