<svg xmlns="http://www.w3.org/2000/svg" width="28.981" height="28.981" viewBox="0 0 28.981 28.981">
  <path id="Path_37" data-name="Path 37" d="M14.491,2.576a44.432,44.432,0,0,1,5.8.161,7.468,7.468,0,0,1,2.737.483,5.655,5.655,0,0,1,2.737,2.737,7.468,7.468,0,0,1,.483,2.737c0,1.449.161,1.932.161,5.8a44.431,44.431,0,0,1-.161,5.8,7.468,7.468,0,0,1-.483,2.737,5.655,5.655,0,0,1-2.737,2.737,7.468,7.468,0,0,1-2.737.483c-1.449,0-1.932.161-5.8.161a44.431,44.431,0,0,1-5.8-.161,7.468,7.468,0,0,1-2.737-.483A5.655,5.655,0,0,1,3.22,23.024a7.468,7.468,0,0,1-.483-2.737c0-1.449-.161-1.932-.161-5.8a44.432,44.432,0,0,1,.161-5.8A7.468,7.468,0,0,1,3.22,5.957a5.783,5.783,0,0,1,1.127-1.61A2.722,2.722,0,0,1,5.957,3.22a7.468,7.468,0,0,1,2.737-.483,44.432,44.432,0,0,1,5.8-.161m0-2.576A47.573,47.573,0,0,0,8.533.161,9.94,9.94,0,0,0,4.991.805a6.3,6.3,0,0,0-2.576,1.61A6.3,6.3,0,0,0,.805,4.991,7.336,7.336,0,0,0,.161,8.533,47.573,47.573,0,0,0,0,14.491a47.573,47.573,0,0,0,.161,5.957A9.94,9.94,0,0,0,.805,23.99a6.3,6.3,0,0,0,1.61,2.576,6.3,6.3,0,0,0,2.576,1.61,9.94,9.94,0,0,0,3.542.644,47.573,47.573,0,0,0,5.957.161,47.573,47.573,0,0,0,5.957-.161,9.94,9.94,0,0,0,3.542-.644,6.755,6.755,0,0,0,4.186-4.186,9.94,9.94,0,0,0,.644-3.542c0-1.61.161-2.093.161-5.957a47.573,47.573,0,0,0-.161-5.957,9.94,9.94,0,0,0-.644-3.542,6.3,6.3,0,0,0-1.61-2.576A6.3,6.3,0,0,0,23.99.805,9.94,9.94,0,0,0,20.448.161,47.573,47.573,0,0,0,14.491,0m0,7.084a7.287,7.287,0,0,0-7.406,7.406,7.406,7.406,0,1,0,7.406-7.406m0,12.237a4.744,4.744,0,0,1-4.83-4.83,4.744,4.744,0,0,1,4.83-4.83,4.744,4.744,0,0,1,4.83,4.83,4.744,4.744,0,0,1-4.83,4.83m7.728-14.33A1.771,1.771,0,1,0,23.99,6.762a1.787,1.787,0,0,0-1.771-1.771" fill="#0e110f" fill-rule="evenodd"/>
</svg>
